<?xml version="1.0" standalone="no"?>
<!DOCTYPE svg PUBLIC "-//W3C//DTD SVG 20010904//EN"
 "http://www.w3.org/TR/2001/REC-SVG-20010904/DTD/svg10.dtd">
<svg version="1.0" xmlns="http://www.w3.org/2000/svg"
 width="389.000000pt" height="389.000000pt" viewBox="0 0 389.000000 389.000000"
 preserveAspectRatio="xMidYMid meet">
<metadata>
Created by potrace 1.11, written by Peter Selinger 2001-2013
</metadata>
<g transform="translate(0.000000,389.000000) scale(0.100000,-0.100000)"
fill="#000000" stroke="none">
<path d="M67 3873 c-2 -5 -3 -872 -3 -1928 l1 -1920 610 0 610 0 0 225 0 225
-382 3 -383 2 -2 158 c-1 86 -2 850 -3 1697 l0 1540 -222 3 c-122 1 -223 -1
-226 -5z"/>
<path d="M2605 3867 c-3 -7 -4 -109 -3 -227 l3 -215 383 -3 382 -2 2 -158 c1
-86 2 -850 3 -1697 l0 -1540 225 0 225 0 0 1925 0 1925 -608 3 c-486 2 -609 0
-612 -11z"/>
</g>
</svg>
